<svg width="21" height="21" viewBox="0 0 21 21" fill="none" xmlns="http://www.w3.org/2000/svg">
<g clip-path="url(#clip0_1201_1473)">
<path fill-rule="evenodd" clip-rule="evenodd" d="M1.18213 10.6904C1.18213 5.43915 5.43915 1.18213 10.6904 1.18213C15.9417 1.18213 20.1988 5.43915 20.1988 10.6904C20.1988 15.9417 15.9417 20.1988 10.6904 20.1988C5.43915 20.1988 1.18213 15.9417 1.18213 10.6904ZM14.2152 9.4612C14.5865 9.08988 14.5865 8.48785 14.2152 8.11653C13.8439 7.7452 13.2419 7.7452 12.8705 8.11653L9.73956 11.2475L8.51024 10.0182C8.13891 9.64687 7.53688 9.64687 7.16556 10.0182C6.79424 10.3895 6.79424 10.9915 7.16556 11.3629L9.06722 13.2645C9.43854 13.6359 10.0406 13.6359 10.4119 13.2645L14.2152 9.4612Z" fill="#5803F3"/>
</g>
<defs>
<clipPath id="clip0_1201_1473">
<rect width="20.8129" height="20.8129" fill="white"/>
</clipPath>
</defs>
</svg>
