<svg width="55" height="55" viewBox="0 0 55 55" fill="none" xmlns="http://www.w3.org/2000/svg">
<g clip-path="url(#clip0_1201_1429)">
<path d="M15.1205 48.942C13.7139 48.958 12.3234 48.9899 10.9807 48.4784C8.03971 47.3596 6.0897 44.6264 6.05773 41.4776C6.04175 40.4866 6.02576 39.4796 6.05773 38.4726C6.10568 37.2099 5.65814 36.187 4.74707 35.3238C3.89993 34.5246 3.10074 33.6935 2.28557 32.8623C-0.767318 29.7615 -0.751334 25.1582 2.31754 22.0733C3.18066 21.2102 4.04378 20.3471 4.9069 19.484C5.69011 18.7167 6.07372 17.7897 6.07372 16.6868C6.07372 15.3282 6.00978 13.9536 6.16962 12.611C6.60118 8.85478 9.71801 6.08959 13.5061 6.02566C14.5291 6.00967 15.5521 5.99369 16.559 6.02566C17.8058 6.05762 18.8127 5.62606 19.6599 4.73097C20.4751 3.88384 21.3222 3.05268 22.1533 2.22153C25.2062 -0.783413 29.8095 -0.783413 32.8624 2.20554C33.7575 3.08465 34.6526 3.97974 35.5317 4.87483C36.283 5.64205 37.194 6.00967 38.2649 6.02566C39.6395 6.02566 41.0301 5.96172 42.3887 6.12156C46.1129 6.55312 48.8621 9.66995 48.9421 13.4261C48.958 14.497 48.958 15.5839 48.9421 16.6708C48.9261 17.7897 49.3257 18.7327 50.1249 19.5159C50.988 20.3631 51.8511 21.2262 52.7142 22.1053C55.7511 25.1901 55.7511 29.7775 52.7302 32.8623C51.8671 33.7414 50.988 34.6205 50.1089 35.4837C49.3257 36.2509 48.9421 37.1779 48.9421 38.2808C48.9421 39.6394 49.006 41.014 48.8462 42.3567C48.4146 46.0969 45.3297 48.8461 41.5736 48.942C40.4547 48.9739 39.3358 48.958 38.217 48.942C37.178 48.942 36.2989 49.3096 35.5797 50.0289C34.6846 50.924 33.8055 51.819 32.9104 52.6981C29.8095 55.751 25.2062 55.767 22.1214 52.7141C21.2902 51.899 20.4591 51.0998 19.6599 50.2526C18.7968 49.3416 17.7738 48.878 16.5111 48.942C16.0476 48.958 15.584 48.942 15.1205 48.942ZM27.5079 10.2294C17.9816 10.2294 10.2455 17.9655 10.2295 27.4918C10.2295 36.9861 17.9496 44.7542 27.428 44.7702C37.0182 44.7862 44.7703 37.0341 44.7703 27.4439C44.7703 17.9655 37.0022 10.2294 27.5079 10.2294Z" fill="#16C54A"/>
<path d="M14.0654 27.5078C14.0654 20.1393 20.0593 14.0814 27.4118 14.0655C34.8922 14.0495 40.9181 20.0434 40.9341 27.5078C40.9501 34.8283 34.9082 40.9181 27.6196 40.9181C20.0913 40.9181 14.0814 34.9722 14.0654 27.5078ZM24.9184 29.9213C23.6876 28.6746 22.5208 27.4918 21.322 26.293C20.4589 25.4299 19.2761 25.4139 18.4929 26.1971C17.7257 26.9803 17.7577 28.1471 18.6048 28.9783C20.2192 30.6086 21.8495 32.239 23.4798 33.8533C24.3909 34.7644 25.4778 34.7644 26.3889 33.8693C29.7295 30.5447 33.0541 27.2201 36.3787 23.8635C36.6344 23.6077 36.8422 23.2561 36.9541 22.9045C37.2099 22.0733 36.8263 21.2102 36.123 20.7786C35.3238 20.3151 34.4127 20.427 33.7094 21.1143C31.9192 22.8885 30.1451 24.6627 28.3709 26.4529C27.236 27.6037 26.1172 28.7225 24.9184 29.9213Z" fill="#16C54A"/>
</g>
<defs>
<clipPath id="clip0_1201_1429">
<rect width="55" height="55" fill="white"/>
</clipPath>
</defs>
</svg>
