<svg width="66" height="52" viewBox="0 0 66 52" fill="none" xmlns="http://www.w3.org/2000/svg">
<g clip-path="url(#clip0_1201_1419)">
<path d="M40.9813 40.1251C44.0584 38.1312 43.9185 33.8964 40.5093 32.2025C41.1562 31.1791 41.5058 30.0851 41.296 28.8499C40.9638 26.8384 39.2505 25.2856 37.2224 25.2327C36.4531 25.215 35.7013 25.2327 34.8796 25.2327C34.8621 24.968 34.8446 24.7563 34.8446 24.5445C34.8446 20.9626 34.8621 17.363 34.8271 13.781C34.8271 12.687 35.2118 11.8401 36.016 11.1166C39.3029 8.15226 42.5898 5.17025 45.8592 2.20588C46.1739 1.92355 46.4886 1.65888 46.8208 1.3942C49.216 -0.458528 51.6812 -0.476173 54.024 1.42949C55.58 2.69994 57.0486 4.0939 58.5522 5.45257C60.6152 7.32294 62.6608 9.21096 64.7588 11.0461C65.633 11.8224 66.0176 12.7223 66.0176 13.8869C66.0176 25.4621 66.0176 37.0549 66.0351 48.63C66.0351 50.8357 64.9162 51.9473 62.7132 51.9473C54.7583 51.9473 46.8033 51.9473 38.8483 51.9649C38.5861 51.9649 38.3413 51.9649 38.0091 51.9649C38.7434 50.4122 38.7609 48.9476 37.9217 47.4478C39.6526 47.2008 40.9988 46.4067 41.6981 44.7658C42.38 43.1071 42.0828 41.572 40.9813 40.1251ZM49.3734 23.6976C49.0762 23.7681 48.8489 23.8387 48.6216 23.9093C46.2788 24.5622 44.7228 26.362 44.6528 28.497C44.5654 30.8262 45.7543 32.4495 48.2369 33.3141C49.0762 33.5964 49.9853 33.7023 50.842 33.967C51.7162 34.2317 52.6253 34.461 53.3946 34.9375C55.2128 36.0844 55.038 38.4312 53.0973 39.3664C51.6462 40.0545 50.1077 40.1604 48.5691 39.631C47.4152 39.2252 46.5935 38.4665 46.2089 37.2666C45.9466 36.4549 45.4571 36.155 44.8102 36.3491C44.1808 36.5432 43.971 37.1254 44.2158 37.9371C44.8626 39.9134 46.2613 41.1132 48.167 41.7485C49.3034 42.119 49.3034 42.1014 49.3734 43.3012C49.4083 43.9894 49.8105 44.4305 50.4049 44.4305C50.9993 44.4305 51.4189 44.007 51.4714 43.3189C51.4889 42.913 51.4714 42.4895 51.4714 42.1543C52.3805 41.8367 53.2372 41.6249 54.024 41.2544C55.5975 40.5133 56.629 39.3134 56.7339 37.496C56.8388 35.6433 56.1395 34.0728 54.5135 33.1553C53.447 32.5554 52.2232 32.2378 51.0518 31.8496C50.1776 31.5673 49.2685 31.4261 48.4118 31.0908C47.4327 30.7203 46.7858 29.9968 46.7509 28.8499C46.7159 27.6853 47.2754 26.8737 48.2369 26.3267C50.4049 25.0739 53.0799 25.8679 54.2338 28.0735C54.6009 28.7617 55.1429 29.0087 55.7199 28.744C56.2793 28.4794 56.4542 27.8618 56.122 27.156C55.4052 25.6032 54.2338 24.5445 52.6253 23.9975C52.2581 23.874 51.891 23.7858 51.4889 23.6623C51.4889 23.4152 51.4889 23.2035 51.4889 22.9741C51.4889 22.7624 51.5064 22.533 51.4714 22.3212C51.4015 21.7037 50.9469 21.2802 50.3874 21.2802C49.8279 21.2978 49.4083 21.7213 49.3909 22.3742C49.3559 22.8153 49.3734 23.2564 49.3734 23.6976ZM53.0799 9.38741C53.0973 7.88758 51.9434 6.70537 50.4573 6.67008C48.9538 6.65243 47.7299 7.85229 47.7124 9.35212C47.695 10.852 48.9188 12.0871 50.4049 12.0695C51.891 12.0695 53.0624 10.8696 53.0799 9.38741Z" fill="#FD5E0D"/>
<path d="M8.53187 30.7556C10.7698 30.7556 12.3782 29.6792 13.4622 27.7912C14.5462 25.9208 16.0847 24.5798 17.938 23.5564C18.1128 23.4682 18.2701 23.3447 18.445 23.2564C20.6654 22.0919 22.0466 20.3097 22.4662 17.8041C22.4837 17.6453 22.5361 17.5041 22.5711 17.363C22.7984 16.6748 23.3753 16.5337 23.8648 17.0807C25.0188 18.3864 25.2635 19.9921 25.0887 21.6507C24.9488 23.0094 24.4943 24.2622 23.6376 25.3386C23.3054 25.7444 23.148 26.1679 23.3928 26.6796C23.655 27.2089 24.1096 27.3324 24.6516 27.3324C28.7427 27.3324 32.8339 27.3148 36.9075 27.3324C38.516 27.3324 39.5825 28.7264 39.1454 30.2086C38.8656 31.1967 37.9915 31.8143 36.855 31.8143C34.1626 31.8143 31.4701 31.8143 28.7952 31.8143C28.6029 31.8143 28.3931 31.7966 28.2007 31.8319C27.6413 31.9025 27.2916 32.2378 27.2217 32.8201C27.1517 33.3847 27.4839 33.8611 28.0434 34.0023C28.2707 34.0552 28.5154 34.0552 28.7602 34.0552C32.0471 34.0552 35.3165 34.0552 38.6034 34.0552C40.072 34.0552 41.0686 34.9551 41.086 36.2785C41.1035 37.6019 40.072 38.5547 38.5684 38.5547C35.3165 38.5547 32.0471 38.5547 28.7952 38.5547C28.5854 38.5547 28.3581 38.5371 28.1483 38.5724C27.6238 38.6606 27.2916 38.9958 27.2392 39.5428C27.1867 40.0898 27.414 40.4957 27.9385 40.6721C28.2007 40.7603 28.498 40.778 28.7777 40.778C31.7674 40.778 34.7745 40.778 37.7642 40.7956C38.8831 40.7956 39.7573 41.5897 39.9321 42.7013C40.0895 43.6718 39.5125 44.7305 38.5509 45.0834C38.1663 45.2245 37.7467 45.2775 37.3271 45.2775C34.4773 45.2951 31.645 45.2775 28.7952 45.2775C28.6029 45.2775 28.3931 45.2598 28.2007 45.2951C27.6238 45.3657 27.2916 45.6833 27.2217 46.2656C27.1517 46.8302 27.4839 47.3067 28.0434 47.4478C28.2707 47.5007 28.5154 47.5184 28.7602 47.5184C30.526 47.5184 32.3094 47.5184 34.0752 47.5184C35.4564 47.5184 36.418 48.4359 36.4354 49.724C36.4529 51.0121 35.5088 52.0179 34.1451 52.0002C28.6553 51.9826 23.1655 52.0355 17.6932 51.8591C15.9798 51.8061 14.2664 51.2239 12.588 50.7827C11.3292 50.4475 10.1229 49.9181 8.89902 49.4417C8.70671 49.3711 8.47942 49.1065 8.47942 48.9124C8.46194 42.9307 8.46194 36.9314 8.47942 30.9497C8.46194 30.9144 8.4969 30.8791 8.53187 30.7556Z" fill="#FD5E0D"/>
<path d="M0.0174834 39.1548C0.0174834 35.3964 0.0349669 31.6204 0 27.862C0 27.2444 0.139868 27.015 0.804238 27.0327C2.37775 27.0856 3.95126 27.068 5.52477 27.0327C6.04927 27.0327 6.25907 27.1562 6.25907 27.7385C6.24159 35.3964 6.24159 43.0544 6.25907 50.7124C6.25907 51.2946 6.03179 51.4182 5.52477 51.4005C3.93378 51.3829 2.3253 51.3652 0.734305 51.4005C0.122384 51.4358 0 51.1888 0 50.6418C0.0174834 46.8128 0.0174834 42.9838 0.0174834 39.1548Z" fill="#FD5E0D"/>
</g>
<defs>
<clipPath id="clip0_1201_1419">
<rect width="66" height="52" fill="white"/>
</clipPath>
</defs>
</svg>
