<svg width="55" height="63" viewBox="0 0 55 63" fill="none" xmlns="http://www.w3.org/2000/svg">
<g clip-path="url(#clip0_1201_1407)">
<path d="M38.2379 0.000208793C39.1444 0.359294 39.7708 0.946889 39.7543 1.9915C39.7378 3.08508 38.8807 3.85222 37.6611 3.86854C36.392 3.88486 35.1064 3.86854 33.7384 3.86854C33.7384 5.19063 33.7384 6.48007 33.7384 7.68791C31.7276 7.54101 29.7992 7.27985 27.8873 7.27985C25.9589 7.27985 24.0306 7.52469 22.0033 7.65526C22.0033 6.48007 22.0033 5.19063 22.0033 3.85222C20.5859 3.85222 19.2673 3.86854 17.9488 3.85222C16.5808 3.8359 15.6743 2.85657 15.8556 1.63242C15.9874 0.767346 16.5808 0.310328 17.3224 -0.0161133C24.3108 0.000208793 31.2826 0.000208793 38.2379 0.000208793Z" fill="#5803F3"/>
<path d="M53.8296 36.8229C53.846 50.9904 42.1769 62.5465 27.8211 62.5628C13.4984 62.5791 1.77979 50.9904 1.77979 36.8392C1.79627 22.6879 13.4654 11.1482 27.7717 11.1319C42.1109 11.0993 53.8131 22.639 53.8296 36.8229ZM49.5278 36.8229C49.4454 24.8261 39.7375 15.3267 27.6398 15.392C15.707 15.4409 6.01563 25.1689 6.09804 37.0024C6.18045 48.8033 15.9542 58.3843 27.8706 58.3191C39.8859 58.2538 49.6102 48.5911 49.5278 36.8229Z" fill="#5803F3"/>
<path d="M7.44966 11.0339C8.1419 11.7847 8.85062 12.5681 9.54286 13.3516C8.57043 14.2003 7.61448 15.0328 6.62557 15.8978C5.94981 15.1633 5.27406 14.4289 4.56533 13.6454C4.15329 14.0208 3.7742 14.3962 3.39512 14.739C2.5051 15.5551 1.30192 15.5551 0.527275 14.739C-0.21441 13.9555 -0.148482 12.764 0.692094 11.9479C2.42269 10.2994 4.16977 8.65084 5.91685 7.01863C6.82335 6.16988 7.99357 6.16988 8.78469 6.98599C9.55934 7.78577 9.49342 8.94464 8.63636 9.80971C8.24079 10.1851 7.86171 10.5932 7.44966 11.0339Z" fill="#5803F3"/>
<path d="M51.1597 18.0853C49.3797 16.3878 47.6326 14.7392 45.8525 13.0417C46.9074 11.9482 48.0117 10.7566 49.1489 9.63042C49.8082 8.97753 50.7312 8.96121 51.4399 9.56513C52.4618 10.4302 53.4507 11.3116 54.4231 12.2093C55.0989 12.8295 55.1978 13.8089 54.5879 14.4781C53.4672 15.7349 52.264 16.9427 51.1597 18.0853Z" fill="#5803F3"/>
<path d="M25.8271 19.4233C25.8271 19.7171 25.8271 19.9783 25.8271 20.2394C25.8271 25.6094 25.8271 30.9957 25.8271 36.3657C25.8271 38.1611 26.5028 38.8303 28.3323 38.8303C33.7878 38.8303 39.2433 38.8303 44.7153 38.8303C44.9626 38.8303 45.2098 38.8303 45.457 38.8303C44.8966 46.4854 38.0237 53.6344 29.7827 54.271C29.7827 53.2917 29.8157 52.3287 29.7827 51.3494C29.7498 50.2231 28.9422 49.456 27.8708 49.4397C26.783 49.4233 25.926 50.2068 25.9095 51.2841C25.893 52.0838 25.9095 52.8673 25.9095 53.6671C25.9095 53.8629 25.9095 54.0588 25.9095 54.271C17.6191 53.5692 10.8121 46.4854 10.2188 38.7487C10.878 38.7487 11.5208 38.7487 12.1636 38.7487C12.5262 38.7487 12.9053 38.765 13.2679 38.7324C14.3227 38.6508 15.1139 37.8183 15.0974 36.79C15.0809 35.7618 14.2733 34.9293 13.2185 34.8967C12.2295 34.864 11.2406 34.8967 10.2682 34.8967C10.466 28.0251 17.0093 20.1578 25.8271 19.4233Z" fill="#5803F3"/>
<path d="M29.7661 19.4072C37.15 19.9785 44.6163 26.2788 45.4898 34.9295C40.2651 34.9295 35.0403 34.9295 29.7661 34.9295C29.7661 29.7554 29.7661 24.5976 29.7661 19.4072Z" fill="#5803F3"/>
</g>
<defs>
<clipPath id="clip0_1201_1407">
<rect width="55" height="62.5625" fill="white"/>
</clipPath>
</defs>
</svg>
