<svg width="33" height="33" viewBox="0 0 33 33" fill="none" xmlns="http://www.w3.org/2000/svg">
<rect width="32.7826" height="32.7826" rx="16.3913" fill="#0A66C2"/>
<path d="M24.0754 7.37598H8.70697C8.35397 7.37598 8.01543 7.51621 7.76582 7.76582C7.51621 8.01543 7.37598 8.35397 7.37598 8.70697V24.0754C7.37598 24.4284 7.51621 24.767 7.76582 25.0166C8.01543 25.2662 8.35397 25.4064 8.70697 25.4064H24.0754C24.4284 25.4064 24.767 25.2662 25.0166 25.0166C25.2662 24.767 25.4064 24.4284 25.4064 24.0754V8.70697C25.4064 8.35397 25.2662 8.01543 25.0166 7.76582C24.767 7.51621 24.4284 7.37598 24.0754 7.37598ZM12.75 22.7357H10.0392V14.1249H12.75V22.7357ZM11.3928 12.9316C11.0853 12.9299 10.7852 12.8371 10.5304 12.665C10.2755 12.4928 10.0774 12.2491 9.961 11.9645C9.84458 11.6799 9.81508 11.3672 9.87622 11.0658C9.93736 10.7644 10.0864 10.4879 10.3045 10.2712C10.5227 10.0545 10.8001 9.9072 11.1019 9.84799C11.4036 9.78879 11.7161 9.8203 12 9.93854C12.2839 10.0568 12.5263 10.2565 12.6968 10.5124C12.8673 10.7683 12.9581 11.069 12.9579 11.3765C12.9608 11.5824 12.9222 11.7867 12.8445 11.9773C12.7667 12.168 12.6514 12.341 12.5053 12.4862C12.3593 12.6313 12.1855 12.7455 11.9943 12.822C11.8032 12.8986 11.5986 12.9358 11.3928 12.9316ZM22.7419 22.7432H20.0323V18.039C20.0323 16.6516 19.4426 16.2234 18.6813 16.2234C17.8775 16.2234 17.0886 16.8294 17.0886 18.074V22.7432H14.3778V14.1311H16.9847V15.3244H17.0198C17.2814 14.7947 18.198 13.8895 19.5966 13.8895C21.1092 13.8895 22.7432 14.7872 22.7432 17.4167L22.7419 22.7432Z" fill="white"/>
</svg>
