<svg width="216" height="54" viewBox="0 0 216 54" fill="none" xmlns="http://www.w3.org/2000/svg">
<g clip-path="url(#clip0_1201_1642)">
<path d="M24.9562 31.6691C28.3229 31.6691 31.6896 31.6691 35.0563 31.6691C36.1157 31.6691 37.1752 31.7413 38.2346 31.7653C39.2941 31.7653 39.8356 32.2948 39.8827 33.3777C39.9533 34.7253 39.6237 35.2066 38.4465 35.351C37.5048 35.4713 36.5631 35.5195 35.6213 35.5195C30.6066 35.5195 25.5919 35.4473 20.5772 35.4473C19.5648 35.4473 18.7173 35.2788 18.2464 34.22C17.752 33.0889 18.4818 32.367 19.1175 31.6932C23.1669 27.5059 27.2635 23.3426 31.3364 19.1794C32.3017 18.1927 33.2905 17.2061 34.2558 16.1954C36.4453 13.837 36.8691 10.6604 35.4094 7.74859C34.0439 5.02926 31.0775 3.44097 28.0639 3.87414C25.0739 4.30731 22.7196 6.59347 22.1075 9.69784C21.9662 10.3717 21.8014 11.0214 21.6837 11.6952C21.4954 12.73 20.8597 13.0669 19.8944 13.0188C18.9056 12.9707 18.2935 12.6097 18.2228 11.4786C18.011 7.532 19.6354 4.4517 22.649 2.1896C27.1693 -1.20355 33.2905 -0.529734 37.081 3.63349C40.8008 7.74859 41.0834 14.0536 37.4106 18.3371C34.5148 21.7062 31.2894 24.7625 28.2052 27.9631C27.1222 29.0941 26.0157 30.2252 24.9091 31.3562C24.9091 31.4525 24.9327 31.5488 24.9562 31.6691Z" fill="white"/>
<path d="M3.74338 34.2441C8.99353 28.8776 14.0789 23.7037 19.1642 18.5297C21.754 15.9067 24.3202 13.2595 26.91 10.6364C27.216 10.3236 27.5221 9.98669 27.8752 9.74605C28.6992 9.16849 29.6174 9.09629 30.3473 9.81824C31.1006 10.5402 31.03 11.4787 30.5356 12.3691C30.3708 12.682 30.0883 12.9226 29.8293 13.1633C25.4974 17.5431 21.1889 21.9229 16.9041 26.3027C12.5721 30.7306 8.28723 35.1586 3.95527 39.5865C3.62566 39.9234 3.29606 40.2844 2.89582 40.525C1.67157 41.2951 0.282519 40.6454 0.0470865 39.2015C-0.0235433 38.8405 0 38.4795 0.0235433 38.1185C0.0470865 32.7521 0.0941731 27.3856 0.0941731 22.0191C0.0941731 17.0136 0.0470865 12.0081 0.0235433 7.00265C0.0235433 5.31811 0.0706298 3.63356 0.117716 1.94902C0.14126 0.793907 0.776928 0.0960253 1.78929 0.0238306C2.75456 -0.0483641 3.55503 0.625453 3.71984 1.73244C3.79047 2.28593 3.79047 2.86349 3.79047 3.41698C3.79047 13.1873 3.76692 22.9817 3.74338 32.7521C3.74338 33.1612 3.74338 33.5943 3.74338 34.2441Z" fill="white"/>
<path d="M33.4552 49.5734C30.7948 46.9744 28.0873 44.3994 25.4505 41.7764C25.0503 41.3673 24.7207 40.6934 24.6971 40.14C24.6971 39.5865 25.0032 38.7683 25.4034 38.5517C25.9449 38.287 26.7218 38.4554 27.381 38.5998C27.7107 38.672 27.9932 39.0811 28.2757 39.3458C31.8307 42.9796 35.3622 46.6134 38.9172 50.2231C39.6235 50.9451 40.2121 51.6911 39.7883 52.75C39.3646 53.8569 38.4228 53.9051 37.434 53.9051C33.6671 53.9051 29.9002 53.8329 26.1333 53.9291C24.7677 53.9532 23.8731 53.3516 22.9785 52.4371C19.8943 49.2365 16.763 46.108 13.5376 42.8593C12.2427 44.1588 10.9243 45.4583 9.62943 46.7819C7.58116 48.8755 5.5329 50.9692 3.48463 53.0628C2.49582 54.0735 1.29511 54.1938 0.494639 53.3516C-0.282289 52.5334 -0.211659 51.4023 0.800701 50.3675C4.56762 46.5171 8.33455 42.6668 12.1486 38.8404C13.1138 37.8538 14.1968 37.9982 15.3269 39.1533C18.5994 42.4983 21.8955 45.8193 25.1209 49.2124C25.7566 49.8622 26.3687 50.1509 27.2633 50.1269C29.2174 50.0547 31.148 50.1028 33.1021 50.1028C33.2433 49.9344 33.361 49.7418 33.4552 49.5734Z" fill="white"/>
<path d="M9.20553 10.3716C9.20553 7.55604 9.22907 4.76451 9.20553 1.94892C9.20553 0.890065 9.69994 0.264378 10.6417 0.0477941C11.7011 -0.16879 12.3368 0.456897 12.6899 1.41949C12.8076 1.70827 12.8783 2.04518 12.8783 2.35802C12.8547 7.77262 12.8547 13.1872 12.7841 18.6018C12.7606 20.3104 11.1596 21.249 9.95891 20.2864C9.51159 19.9254 9.20553 19.1553 9.18198 18.5537C9.11135 15.8344 9.15844 13.115 9.15844 10.3716C9.18199 10.3716 9.18198 10.3716 9.20553 10.3716Z" fill="white"/>
</g>
<path d="M75.11 36L66.62 25.38L74.57 15.99H69.32L62.24 24.93V15.99H57.98V36H62.24V29.85L63.8 27.99L69.86 36H75.11ZM84.1623 36.36C89.5623 36.36 92.1723 33.6 92.1723 29.94C92.1723 22.47 80.6823 24.6 80.6823 21.42C80.6823 20.22 81.7023 19.41 83.5323 19.41C85.5723 19.41 87.7323 20.1 89.3523 21.6L91.7223 18.48C89.7423 16.65 87.1023 15.69 83.9223 15.69C79.2123 15.69 76.3323 18.45 76.3323 21.78C76.3323 29.31 87.8523 26.88 87.8523 30.42C87.8523 31.56 86.7123 32.64 84.3723 32.64C81.6123 32.64 79.4223 31.41 78.0123 29.94L75.7023 33.18C77.5623 35.07 80.3223 36.36 84.1623 36.36ZM104.521 36.36C106.261 36.36 107.851 36 109.261 35.37L110.881 37.23L113.851 34.8L112.381 33.09C114.031 31.29 114.991 28.83 114.991 26.01C114.991 19.98 110.581 15.66 104.521 15.66C98.4905 15.66 94.0805 19.98 94.0805 26.01C94.0805 32.04 98.4905 36.36 104.521 36.36ZM104.521 32.58C100.831 32.58 98.4605 29.73 98.4605 26.01C98.4605 22.26 100.831 19.44 104.521 19.44C108.211 19.44 110.611 22.26 110.611 26.01C110.611 27.45 110.251 28.77 109.591 29.85L107.371 27.24L104.431 29.67L106.621 32.25C105.961 32.46 105.271 32.58 104.521 32.58ZM127.01 36.36C133.1 36.36 136.04 32.97 136.04 27.99V15.99H131.69V27.87C131.69 30.66 130.1 32.58 127.01 32.58C123.92 32.58 122.3 30.66 122.3 27.87V15.99H117.98V28.02C117.98 32.94 120.92 36.36 127.01 36.36ZM157.646 36L149.936 15.99H144.596L136.856 36H141.716L142.976 32.61H151.556L152.786 36H157.646ZM150.386 28.86H144.146L147.266 20.25L150.386 28.86ZM175.694 36L171.194 28.38C173.354 27.87 175.574 25.98 175.574 22.44C175.574 18.72 173.024 15.99 168.854 15.99H159.494V36H163.754V28.89H166.874L170.804 36H175.694ZM168.224 25.14H163.754V19.74H168.224C169.934 19.74 171.224 20.76 171.224 22.44C171.224 24.12 169.934 25.14 168.224 25.14ZM192.931 36V32.25H183.031V27.72H192.721V23.97H183.031V19.74H192.931V15.99H178.771V36H192.931ZM204.151 36C210.421 36 214.771 32.04 214.771 26.01C214.771 19.98 210.421 15.99 204.151 15.99H196.261V36H204.151ZM204.151 32.25H200.521V19.74H204.151C208.261 19.74 210.421 22.47 210.421 26.01C210.421 29.4 208.111 32.25 204.151 32.25Z" fill="white"/>
<defs>
<clipPath id="clip0_1201_1642">
<rect width="40" height="53.9535" fill="white"/>
</clipPath>
</defs>
</svg>
