<svg width="14" height="16" viewBox="0 0 14 16" fill="none" xmlns="http://www.w3.org/2000/svg">
<path fill-rule="evenodd" clip-rule="evenodd" d="M11.3941 2.08089C8.78754 -0.525663 4.56148 -0.525663 1.95492 2.08089C-0.65164 4.68745 -0.651639 8.91352 1.95492 11.5201L6.09102 15.6562C6.41327 15.9784 6.93574 15.9784 7.25799 15.6562L11.3941 11.5201C14.0007 8.91352 14.0007 4.68745 11.3941 2.08089ZM5.43662 6.80108C5.43662 6.11749 5.99078 5.56333 6.67437 5.56333H6.68334C7.36694 5.56333 7.9211 6.11749 7.9211 6.80108V6.81005C7.9211 7.49364 7.36694 8.04781 6.68334 8.04781H6.67437C5.99078 8.04781 5.43662 7.49364 5.43662 6.81005V6.80108Z" fill="#5803F3"/>
</svg>
