<svg width="216" height="54" viewBox="0 0 216 54" fill="none" xmlns="http://www.w3.org/2000/svg">
<g clip-path="url(#clip0_1201_1495)">
<path d="M24.9562 31.6693C28.3229 31.6693 31.6896 31.6693 35.0563 31.6693C36.1157 31.6693 37.1752 31.7415 38.2346 31.7656C39.2941 31.7656 39.8356 32.295 39.8827 33.3779C39.9533 34.7256 39.6237 35.2069 38.4465 35.3513C37.5048 35.4716 36.5631 35.5197 35.6213 35.5197C30.6066 35.5197 25.5919 35.4475 20.5772 35.4475C19.5648 35.4475 18.7173 35.2791 18.2464 34.2202C17.752 33.0892 18.4818 32.3672 19.1175 31.6934C23.1669 27.5061 27.2635 23.3429 31.3364 19.1797C32.3017 18.193 33.2905 17.2063 34.2558 16.1956C36.4453 13.8372 36.8691 10.6607 35.4094 7.74883C34.0439 5.0295 31.0775 3.44122 28.0639 3.87438C25.0739 4.30755 22.7196 6.59372 22.1075 9.69809C21.9662 10.3719 21.8014 11.0217 21.6837 11.6955C21.4954 12.7303 20.8597 13.0672 19.8944 13.019C18.9056 12.9709 18.2935 12.6099 18.2228 11.4789C18.011 7.53225 19.6354 4.45194 22.649 2.18984C27.1693 -1.20331 33.2905 -0.52949 37.081 3.63374C40.8008 7.74883 41.0834 14.0538 37.4106 18.3374C34.5148 21.7065 31.2894 24.7627 28.2052 27.9633C27.1222 29.0944 26.0157 30.2254 24.9091 31.3565C24.9091 31.4527 24.9327 31.549 24.9562 31.6693Z" fill="#5803F3"/>
<path d="M3.74338 34.2443C8.99353 28.8779 14.0789 23.7039 19.1642 18.53C21.754 15.9069 24.3202 13.2598 26.91 10.6367C27.216 10.3238 27.5221 9.98694 27.8752 9.74629C28.6992 9.16873 29.6174 9.09654 30.3473 9.81848C31.1006 10.5404 31.03 11.479 30.5356 12.3694C30.3708 12.6822 30.0883 12.9229 29.8293 13.1635C25.4974 17.5433 21.1889 21.9231 16.9041 26.3029C12.5721 30.7309 8.28723 35.1588 3.95527 39.5868C3.62566 39.9237 3.29606 40.2846 2.89582 40.5253C1.67157 41.2954 0.282519 40.6456 0.0470865 39.2017C-0.0235433 38.8407 0 38.4798 0.0235433 38.1188C0.0470865 32.7523 0.0941731 27.3859 0.0941731 22.0194C0.0941731 17.0139 0.0470865 12.0084 0.0235433 7.00289C0.0235433 5.31835 0.0706298 3.63381 0.117716 1.94927C0.14126 0.794151 0.776928 0.0962694 1.78929 0.0240748C2.75456 -0.0481199 3.55503 0.625697 3.71984 1.73268C3.79047 2.28617 3.79047 2.86373 3.79047 3.41722C3.79047 13.1876 3.76692 22.982 3.74338 32.7523C3.74338 33.1614 3.74338 33.5946 3.74338 34.2443Z" fill="#5803F3"/>
<path d="M33.4552 49.5736C30.7948 46.9746 28.0873 44.3997 25.4505 41.7766C25.0503 41.3675 24.7207 40.6937 24.6971 40.1402C24.6971 39.5867 25.0032 38.7685 25.4034 38.5519C25.9449 38.2872 26.7218 38.4557 27.381 38.6C27.7107 38.6722 27.9932 39.0813 28.2757 39.3461C31.8307 42.9799 35.3622 46.6137 38.9172 50.2234C39.6235 50.9453 40.2121 51.6913 39.7883 52.7502C39.3646 53.8572 38.4228 53.9053 37.434 53.9053C33.6671 53.9053 29.9002 53.8331 26.1333 53.9294C24.7677 53.9534 23.8731 53.3518 22.9785 52.4374C19.8943 49.2367 16.763 46.1083 13.5376 42.8595C12.2427 44.159 10.9243 45.4585 9.62943 46.7821C7.58116 48.8757 5.5329 50.9694 3.48463 53.063C2.49582 54.0738 1.29511 54.1941 0.494639 53.3518C-0.282289 52.5336 -0.211659 51.4026 0.800701 50.3678C4.56762 46.5174 8.33455 42.667 12.1486 38.8407C13.1138 37.854 14.1968 37.9984 15.3269 39.1535C18.5994 42.4986 21.8955 45.8195 25.1209 49.2127C25.7566 49.8624 26.3687 50.1512 27.2633 50.1271C29.2174 50.0549 31.148 50.1031 33.1021 50.1031C33.2433 49.9346 33.361 49.7421 33.4552 49.5736Z" fill="#5803F3"/>
<path d="M9.20553 10.3719C9.20553 7.55628 9.22907 4.76476 9.20553 1.94916C9.20553 0.890309 9.69994 0.264622 10.6417 0.0480382C11.7011 -0.168546 12.3368 0.457141 12.6899 1.41974C12.8076 1.70852 12.8783 2.04542 12.8783 2.35827C12.8547 7.77287 12.8547 13.1875 12.7841 18.6021C12.7606 20.3107 11.1596 21.2492 9.95891 20.2866C9.51159 19.9256 9.20553 19.1556 9.18198 18.5539C9.11135 15.8346 9.15844 13.1153 9.15844 10.3719C9.18199 10.3719 9.18198 10.3719 9.20553 10.3719Z" fill="#5803F3"/>
</g>
<path d="M75.11 36L66.62 25.38L74.57 15.99H69.32L62.24 24.93V15.99H57.98V36H62.24V29.85L63.8 27.99L69.86 36H75.11ZM84.1623 36.36C89.5623 36.36 92.1723 33.6 92.1723 29.94C92.1723 22.47 80.6823 24.6 80.6823 21.42C80.6823 20.22 81.7023 19.41 83.5323 19.41C85.5723 19.41 87.7323 20.1 89.3523 21.6L91.7223 18.48C89.7423 16.65 87.1023 15.69 83.9223 15.69C79.2123 15.69 76.3323 18.45 76.3323 21.78C76.3323 29.31 87.8523 26.88 87.8523 30.42C87.8523 31.56 86.7123 32.64 84.3723 32.64C81.6123 32.64 79.4223 31.41 78.0123 29.94L75.7023 33.18C77.5623 35.07 80.3223 36.36 84.1623 36.36ZM104.521 36.36C106.261 36.36 107.851 36 109.261 35.37L110.881 37.23L113.851 34.8L112.381 33.09C114.031 31.29 114.991 28.83 114.991 26.01C114.991 19.98 110.581 15.66 104.521 15.66C98.4905 15.66 94.0805 19.98 94.0805 26.01C94.0805 32.04 98.4905 36.36 104.521 36.36ZM104.521 32.58C100.831 32.58 98.4605 29.73 98.4605 26.01C98.4605 22.26 100.831 19.44 104.521 19.44C108.211 19.44 110.611 22.26 110.611 26.01C110.611 27.45 110.251 28.77 109.591 29.85L107.371 27.24L104.431 29.67L106.621 32.25C105.961 32.46 105.271 32.58 104.521 32.58ZM127.01 36.36C133.1 36.36 136.04 32.97 136.04 27.99V15.99H131.69V27.87C131.69 30.66 130.1 32.58 127.01 32.58C123.92 32.58 122.3 30.66 122.3 27.87V15.99H117.98V28.02C117.98 32.94 120.92 36.36 127.01 36.36ZM157.646 36L149.936 15.99H144.596L136.856 36H141.716L142.976 32.61H151.556L152.786 36H157.646ZM150.386 28.86H144.146L147.266 20.25L150.386 28.86ZM175.694 36L171.194 28.38C173.354 27.87 175.574 25.98 175.574 22.44C175.574 18.72 173.024 15.99 168.854 15.99H159.494V36H163.754V28.89H166.874L170.804 36H175.694ZM168.224 25.14H163.754V19.74H168.224C169.934 19.74 171.224 20.76 171.224 22.44C171.224 24.12 169.934 25.14 168.224 25.14ZM192.931 36V32.25H183.031V27.72H192.721V23.97H183.031V19.74H192.931V15.99H178.771V36H192.931ZM204.151 36C210.421 36 214.771 32.04 214.771 26.01C214.771 19.98 210.421 15.99 204.151 15.99H196.261V36H204.151ZM204.151 32.25H200.521V19.74H204.151C208.261 19.74 210.421 22.47 210.421 26.01C210.421 29.4 208.111 32.25 204.151 32.25Z" fill="black"/>
<defs>
<clipPath id="clip0_1201_1495">
<rect width="40" height="53.9535" fill="white"/>
</clipPath>
</defs>
</svg>
