<svg width="26" height="26" viewBox="0 0 26 26" fill="none" xmlns="http://www.w3.org/2000/svg">
<g clip-path="url(#clip0_1201_1367)">
<path d="M20.747 19.0068C20.8525 19.0799 20.9662 19.1367 21.0555 19.2259C22.5577 20.7191 24.0518 22.2203 25.5539 23.7134C25.9275 24.0867 26.098 24.5168 25.9599 25.0362C25.7082 25.9613 24.6202 26.3102 23.8731 25.7016C23.7838 25.6286 23.7107 25.5474 23.6295 25.4744C22.1436 23.9894 20.6658 22.5124 19.1798 21.0274C19.1067 20.9544 19.0336 20.8895 18.9524 20.8083C15.9156 23.1048 12.5377 23.892 8.83502 22.9912C5.96057 22.2852 3.69511 20.6541 2.02241 18.2278C-1.26616 13.4563 -0.462292 6.867 3.86563 3.01244C8.34783 -0.980068 14.9087 -1.00441 19.4396 2.9881C23.8894 6.91569 24.7988 13.862 20.747 19.0068ZM20.747 11.6953C20.7794 6.7047 16.7357 2.63916 11.7176 2.6067C6.69136 2.57424 2.61516 6.59921 2.5908 11.6223C2.56644 16.6535 6.60204 20.7272 11.6526 20.7515C16.6464 20.784 20.7145 16.7266 20.747 11.6953Z" fill="white"/>
</g>
<defs>
<clipPath id="clip0_1201_1367">
<rect width="26" height="26" rx="12" fill="white"/>
</clipPath>
</defs>
</svg>
