<svg width="33" height="33" viewBox="0 0 33 33" fill="none" xmlns="http://www.w3.org/2000/svg">
<rect width="32.7826" height="32.7826" rx="16.3913" fill="#1D9BF0"/>
<path d="M13.3918 25.038C20.6613 25.038 24.6362 19.0142 24.6362 13.7935C24.6362 13.6214 24.6362 13.4493 24.628 13.2854C25.3984 12.7281 26.0704 12.0315 26.6031 11.2365C25.8983 11.5479 25.1361 11.761 24.333 11.8594C25.1525 11.3676 25.7754 10.5972 26.0704 9.67113C25.3082 10.1219 24.4641 10.4497 23.5626 10.63C22.8413 9.85962 21.8169 9.38428 20.6777 9.38428C18.4976 9.38428 16.7274 11.1545 16.7274 13.3346C16.7274 13.646 16.7602 13.9493 16.8339 14.2361C13.5475 14.0722 10.638 12.4986 8.68745 10.1055C8.35143 10.6874 8.15474 11.3676 8.15474 12.0888C8.15474 13.4575 8.85137 14.6705 9.9168 15.3753C9.26935 15.3589 8.66287 15.1786 8.13015 14.8836C8.13015 14.9 8.13015 14.9163 8.13015 14.9327C8.13015 16.8505 9.49063 18.4405 11.3019 18.8093C10.974 18.8994 10.6216 18.9486 10.261 18.9486C10.007 18.9486 9.76108 18.924 9.51521 18.8748C10.0151 20.4484 11.474 21.5876 13.2033 21.6204C11.851 22.6776 10.1463 23.3087 8.29406 23.3087C7.97443 23.3087 7.663 23.2923 7.35156 23.2513C9.08084 24.3823 11.1625 25.038 13.3918 25.038Z" fill="white"/>
</svg>
