<svg width="33" height="33" viewBox="0 0 33 33" fill="none" xmlns="http://www.w3.org/2000/svg">
<rect width="32.78" height="32.78" rx="16.39" fill="#FF0000"/>
<path d="M27.6158 10.7602C27.3457 9.7572 26.5549 8.96637 25.5519 8.69633C23.7195 8.19482 16.3898 8.19482 16.3898 8.19482C16.3898 8.19482 9.06015 8.19482 7.22773 8.67704C6.24402 8.94708 5.4339 9.7572 5.16386 10.7602C4.68164 12.5926 4.68164 16.3925 4.68164 16.3925C4.68164 16.3925 4.68164 20.2116 5.16386 22.0247C5.4339 23.0277 6.22473 23.8186 7.22773 24.0886C9.07944 24.5901 16.3898 24.5901 16.3898 24.5901C16.3898 24.5901 23.7195 24.5901 25.5519 24.1079C26.5549 23.8379 27.3457 23.047 27.6158 22.044C28.098 20.2116 28.098 16.4118 28.098 16.4118C28.098 16.4118 28.1173 12.5926 27.6158 10.7602Z" fill="white"/>
<path d="M14.0557 19.9029L20.1509 16.3924L14.0557 12.8818V19.9029Z" fill="#FF0000"/>
</svg>
